<?xml version="1.0" standalone="no"?>
<!DOCTYPE svg PUBLIC "-//W3C//DTD SVG 20010904//EN"
 "http://www.w3.org/TR/2001/REC-SVG-20010904/DTD/svg10.dtd">
<svg version="1.0" xmlns="http://www.w3.org/2000/svg"
 width="427.000000pt" height="221.000000pt" viewBox="0 0 427.000000 221.000000"
 preserveAspectRatio="xMidYMid meet">

<g transform="translate(0.000000,221.000000) scale(0.100000,-0.100000)"
fill="#000000" stroke="none">
<path d="M940 2015 c-13 -34 -13 -35 4 -35 9 0 12 8 8 25 -5 31 15 33 46 5 11
-11 28 -17 36 -14 9 3 16 1 16 -5 0 -6 9 -2 20 9 11 11 25 20 30 20 6 0 10 4
10 8 0 4 -36 9 -80 11 -78 2 -80 2 -90 -24z"/>
<path d="M1136 1995 c-11 -8 -17 -17 -14 -20 2 -3 13 4 23 15 21 23 18 25 -9
5z"/>
<path d="M1055 1920 c-11 -5 -15 -9 -10 -9 6 -1 4 -5 -4 -10 -8 -5 -29 -7 -48
-4 -21 4 -33 2 -33 -6 0 -6 16 -11 35 -11 23 0 35 -5 35 -14 0 -9 10 -13 25
-12 14 0 25 5 25 9 0 5 4 6 9 2 5 -3 12 -1 16 5 3 5 15 10 26 10 10 0 19 6 19
14 0 9 -8 12 -25 8 -16 -3 -31 1 -38 11 -8 10 -18 12 -32 7z"/>
<path d="M625 1844 c3 -44 35 -71 35 -29 0 29 7 31 32 8 17 -15 18 -15 18 0 0
10 7 17 15 17 8 0 15 5 15 11 0 5 -5 7 -10 4 -6 -4 -17 -1 -25 5 -8 6 -23 9
-35 5 -12 -4 -27 -2 -34 4 -10 9 -12 3 -11 -25z"/>
<path d="M570 1796 c0 -2 7 -9 15 -16 9 -7 15 -8 15 -2 0 5 -7 12 -15 16 -8 3
-15 4 -15 2z"/>
<path d="M764 1772 c-8 -29 -49 -55 -72 -44 -9 5 -28 6 -42 1 -21 -6 -22 -7
-5 -9 l20 -1 -20 -9 c-11 -5 -14 -9 -6 -9 7 -1 11 -7 7 -16 -7 -18 15 -20 32
-3 9 9 15 9 24 0 16 -16 28 -15 28 3 0 9 9 15 24 15 13 0 30 8 37 17 12 15 12
16 -3 10 -10 -3 -18 -2 -18 4 0 5 9 13 21 17 l20 8 -21 19 c-21 19 -21 19 -26
-3z"/>
<path d="M1092 1750 c-6 -11 -12 -22 -12 -25 0 -10 26 7 38 25 10 16 10 20 -1
20 -6 0 -18 -9 -25 -20z"/>
<path d="M806 1714 c-18 -26 -18 -26 1 -16 11 6 25 18 33 26 10 13 10 16 -1
16 -8 0 -22 -12 -33 -26z"/>
<path d="M1015 1731 c-17 -7 -17 -8 8 -15 15 -3 36 -15 47 -26 11 -11 20 -16
20 -11 0 10 -44 62 -51 60 -2 0 -13 -4 -24 -8z"/>
<path d="M1283 1728 c-5 -7 -14 -30 -20 -50 -10 -34 -9 -37 5 -29 36 19 72 60
66 75 -7 19 -38 21 -51 4z"/>
<path d="M960 1705 c7 -8 19 -15 27 -15 13 0 13 3 3 15 -7 8 -19 15 -27 15
-13 0 -13 -3 -3 -15z"/>
<path d="M1111 1612 c-1 -7 -5 -10 -11 -7 -6 4 -10 -7 -10 -25 0 -28 2 -30 20
-20 22 12 23 15 10 45 -5 11 -9 14 -9 7z"/>
<path d="M4063 1613 c-7 -3 -13 -15 -13 -28 0 -29 27 -41 35 -15 8 24 -6 49
-22 43z"/>
<path d="M784 1593 c8 -25 -10 -41 -27 -24 -17 17 -31 13 -16 -5 11 -14 10
-16 -6 -14 -38 4 -38 0 -5 -30 37 -33 48 -33 30 -1 -16 31 17 42 40 13 l18
-22 5 33 c2 17 0 34 -4 35 -5 2 -17 11 -25 20 -15 15 -16 14 -10 -5z"/>
<path d="M1822 1595 c-50 -12 -62 -21 -189 -154 -93 -98 -141 -141 -157 -141
-12 0 -74 15 -139 34 -65 18 -120 30 -122 25 -5 -8 80 -36 220 -74 109 -29
145 -45 145 -65 0 -39 -140 -131 -410 -267 -193 -98 -225 -107 -364 -100 -104
4 -124 9 -331 76 -303 100 -303 100 -342 134 -25 22 -33 37 -31 56 3 22 14 29
93 58 50 18 96 35 103 38 7 3 11 9 7 15 -6 10 -187 -51 -212 -71 -16 -14 -17
-79 0 -99 7 -8 35 -33 62 -55 98 -77 305 -258 305 -266 0 -5 -17 -17 -38 -28
-53 -27 -108 -86 -140 -150 -24 -50 -27 -67 -27 -161 0 -89 4 -113 24 -158 23
-50 100 -132 125 -132 6 0 -6 11 -25 25 -37 25 -54 50 -40 59 5 3 16 -3 26
-14 23 -26 39 -26 25 0 -15 27 10 27 35 0 23 -26 88 -43 127 -35 23 6 29 4 26
-6 -3 -9 -23 -15 -50 -17 -31 -2 -48 -8 -52 -19 -5 -13 0 -15 35 -9 87 14 163
80 211 183 25 53 31 81 35 156 l5 92 -23 -22 c-16 -16 -25 -39 -30 -83 -14
-125 -94 -216 -185 -214 -26 1 -52 7 -61 16 -13 14 -10 15 30 5 57 -13 94 1
141 53 35 39 56 93 56 140 -1 23 -2 24 -14 8 -16 -22 -26 -23 -26 -4 0 29 -20
26 -49 -6 -48 -52 -34 -103 15 -57 35 32 30 4 -5 -32 -50 -50 -91 -29 -91 46
0 34 6 50 30 75 25 27 35 31 63 27 29 -5 36 -1 82 54 35 42 49 67 47 84 -2 19
2 25 18 25 22 0 26 -10 9 -27 -6 -6 -8 -21 -4 -34 8 -23 8 -22 39 15 30 35 39
39 132 58 54 11 108 22 119 25 13 3 39 -11 78 -41 114 -88 195 -110 244 -64
55 51 92 164 117 354 9 74 19 110 35 132 35 49 81 159 75 177 -4 9 -19 22 -35
31 -16 8 -29 18 -29 22 1 4 51 59 113 123 l112 117 68 11 c92 16 117 26 117
51 0 17 -6 20 -37 19 -21 0 -62 -6 -91 -14z m-452 -578 c-8 -8 -103 -56 -210
-108 l-194 -94 -113 -3 c-64 -2 -120 1 -130 6 -13 8 11 9 79 5 57 -4 114 -1
140 5 24 6 132 54 239 106 107 52 196 95 199 96 2 0 -2 -6 -10 -13z m-35 -46
c-6 -5 -79 -44 -163 -86 -85 -42 -152 -79 -149 -81 2 -3 61 23 131 57 69 34
128 60 131 57 8 -8 -285 -145 -338 -159 -56 -14 -213 -8 -242 9 -17 10 -12 11
25 4 77 -12 212 -6 250 12 19 9 26 13 15 10 -37 -12 -229 -16 -255 -6 -19 8
-4 9 57 5 122 -9 176 7 363 101 157 81 196 97 175 77z m125 -53 c0 -13 -9 -62
-20 -111 -31 -142 -78 -227 -124 -227 -48 0 -196 92 -196 121 0 5 24 21 53 35
71 36 163 103 217 158 49 51 70 58 70 24z m-215 -56 c-6 -4 -69 -36 -142 -71
-121 -58 -138 -64 -215 -68 -86 -6 -192 10 -204 29 -5 8 -1 9 12 4 10 -4 47
-12 82 -18 106 -17 187 1 332 71 117 56 158 72 135 53z m-115 -84 c-58 -27
-123 -56 -144 -64 -84 -30 -223 -28 -310 6 -47 17 -24 21 27 4 34 -12 75 -15
154 -12 108 3 108 3 228 60 66 31 127 56 135 56 8 0 -32 -22 -90 -50z m70 6
c0 -3 -48 -28 -106 -55 -119 -57 -189 -72 -284 -63 -65 6 -196 42 -186 51 2 3
34 -5 69 -16 68 -23 192 -30 258 -16 19 4 81 29 139 56 115 53 110 51 110 43z
m-670 -59 c0 -2 -23 -16 -50 -30 -30 -15 -62 -42 -78 -65 -28 -41 -52 -52 -52
-23 0 19 81 100 113 113 24 10 67 13 67 5z m60 -10 c0 -3 -26 -18 -58 -34 -32
-16 -64 -36 -71 -45 -14 -17 -41 -22 -41 -8 0 23 111 92 148 92 12 0 22 -2 22
-5z m95 -47 c31 -14 33 -33 3 -23 -58 18 -84 16 -143 -14 -61 -31 -77 -33 -55
-6 39 47 139 69 195 43z"/>
<path d="M2037 1598 c-11 -30 7 -40 49 -28 28 8 306 10 997 8 633 -2 957 0
957 7 0 7 -329 10 -967 10 -533 0 -982 4 -999 8 -24 7 -32 5 -37 -5z"/>
<path d="M400 1560 c0 -26 23 -72 44 -89 14 -12 16 -9 16 19 0 32 -33 90 -51
90 -5 0 -9 -9 -9 -20z"/>
<path d="M1044 1560 c0 -11 4 -20 8 -20 5 0 13 -10 19 -22 9 -22 9 -22 4 2 -2
14 -5 33 -5 43 0 9 -6 17 -13 17 -7 0 -13 -9 -13 -20z"/>
<path d="M515 1507 c-4 -19 -5 -47 -3 -63 l3 -29 18 27 c13 19 16 36 11 62 -8
45 -21 46 -29 3z"/>
<path d="M1000 1484 c1 -33 7 -56 19 -71 11 -13 21 -23 23 -23 1 0 1 24 0 54
-3 38 -10 60 -23 72 -18 17 -19 16 -19 -32z"/>
<path d="M1122 1499 c-30 -17 -52 -32 -50 -34 8 -8 81 14 99 31 19 17 25 34
12 34 -5 0 -32 -14 -61 -31z"/>
<path d="M2261 1511 c-33 -33 -53 -70 -45 -82 4 -8 3 -9 -4 -5 -25 15 -106
-188 -137 -344 -19 -96 -19 -150 1 -178 34 -49 91 -14 167 102 29 44 32 46 37
26 3 -13 13 -28 23 -34 24 -15 44 -1 89 63 l37 53 -6 -56 c-5 -46 -2 -60 12
-76 28 -31 50 -24 90 31 23 30 43 48 51 45 9 -3 27 15 48 48 41 65 61 80 41
32 -21 -50 -19 -79 8 -104 13 -12 27 -22 31 -22 5 0 24 17 43 38 30 32 33 34
25 11 -6 -14 -13 -50 -17 -80 -6 -50 -5 -56 20 -79 l27 -25 40 45 c38 42 103
130 143 193 34 53 -2 26 -53 -40 -61 -81 -107 -133 -116 -133 -22 0 32 192 85
305 20 40 29 50 52 52 15 1 27 -2 27 -8 0 -5 11 -9 25 -9 14 0 25 5 25 11 0 5
-4 8 -9 5 -12 -8 0 45 17 74 17 26 52 59 65 60 25 1 -9 -106 -98 -310 -41 -93
-48 -132 -31 -156 12 -15 16 -16 30 -5 9 7 16 19 16 25 0 32 174 285 251 366
47 49 50 20 6 -67 -78 -155 -127 -280 -127 -325 0 -50 33 -110 64 -116 29 -6
65 7 75 26 9 16 5 18 -37 18 l-47 -1 1 40 c0 28 23 90 73 200 89 196 99 225
83 259 -27 59 -94 18 -199 -122 -31 -42 -61 -81 -65 -87 -5 -5 8 37 28 94 41
119 41 164 -2 183 -51 23 -144 -53 -144 -117 0 -8 -9 -15 -20 -15 -11 0 -20 2
-20 5 0 10 32 69 53 97 22 30 17 58 -11 58 -25 0 -42 -21 -87 -102 l-37 -68
-63 0 c-35 0 -67 -4 -70 -10 -4 -6 18 -10 59 -10 36 0 66 -2 66 -5 0 -2 -11
-35 -25 -72 -26 -68 -55 -107 -109 -146 l-29 -20 7 39 c4 21 18 55 32 75 28
40 30 61 9 79 -12 10 -20 6 -46 -21 -18 -19 -45 -52 -61 -73 -36 -51 -39 -20
-3 49 23 47 21 64 -7 65 -12 0 -37 -55 -53 -116 -15 -60 -56 -128 -81 -138
-13 -5 -14 2 -8 42 3 26 13 62 20 81 8 18 14 39 14 46 0 19 -28 27 -51 15 -15
-9 -21 -7 -25 5 -10 25 -40 36 -66 24 -25 -11 -39 -31 -107 -145 -49 -84 -107
-154 -127 -154 -10 0 -14 15 -14 58 0 85 19 138 92 249 117 177 139 236 106
278 -23 30 -32 31 -57 6z m30 -84 c-14 -41 -114 -211 -105 -177 14 52 65 176
86 210 17 27 23 31 26 17 2 -9 -1 -32 -7 -50z m1009 -145 c0 -5 -7 -17 -15
-28 -14 -18 -14 -17 -4 9 12 27 19 34 19 19z m-885 -112 c5 -25 0 -39 -30 -80
-34 -46 -55 -62 -55 -42 0 5 9 35 20 67 31 89 53 108 65 55z"/>
<path d="M680 1470 c0 -5 14 -10 31 -10 17 0 28 4 24 10 -3 6 -17 10 -31 10
-13 0 -24 -4 -24 -10z"/>
<path d="M865 1453 c6 -24 5 -26 -7 -12 -11 14 -15 14 -26 3 -16 -18 -15 -24
4 -24 17 0 42 -54 52 -112 8 -43 19 -52 35 -27 8 13 6 21 -6 34 -9 9 -17 23
-17 31 0 9 -7 22 -15 30 -17 17 -20 50 -6 58 11 7 2 46 -10 46 -5 0 -7 -12 -4
-27z"/>
<path d="M3898 1452 c-12 -15 -34 -50 -48 -77 -14 -28 -29 -53 -35 -57 -5 -4
-36 -8 -67 -8 -31 0 -60 -4 -63 -10 -4 -6 18 -10 59 -10 l66 0 -25 -67 c-14
-37 -33 -76 -43 -86 -15 -17 -83 -57 -96 -57 -10 0 -25 101 -20 128 7 36 -6
46 -34 26 -26 -18 -30 -81 -10 -146 11 -36 10 -41 -8 -51 -28 -15 -94 -83 -94
-96 0 -7 11 -23 25 -36 34 -35 78 -33 116 4 25 25 29 37 29 83 1 52 2 54 44
79 l43 26 -9 -41 c-22 -108 -21 -133 1 -155 11 -11 25 -21 31 -21 10 0 88 97
153 188 61 86 37 82 -30 -4 -68 -88 -110 -131 -119 -121 -9 8 38 165 79 267
l35 85 43 2 c62 4 75 23 16 23 l-48 0 17 33 c9 17 27 47 41 65 43 58 -2 90
-49 34z m-322 -508 c-10 -15 -26 -24 -41 -24 -41 0 -28 38 25 74 24 16 25 16
28 -4 2 -12 -4 -32 -12 -46z"/>
<path d="M795 1460 c3 -5 8 -10 11 -10 2 0 4 5 4 10 0 6 -5 10 -11 10 -5 0 -7
-4 -4 -10z"/>
<path d="M1913 1444 c-45 -64 -163 -357 -150 -371 3 -2 -1 -20 -9 -38 -21 -50
-18 -82 7 -90 27 -9 32 -2 54 75 22 79 30 90 62 90 32 0 135 64 173 107 75 85
104 199 61 234 -20 17 -26 17 -49 5 -27 -14 -67 -54 -93 -92 -8 -11 -31 -40
-52 -65 l-38 -44 20 53 c12 29 30 70 41 91 16 32 17 41 6 56 -12 16 -14 16
-33 -11z m157 -62 c0 -57 -94 -190 -156 -219 -19 -9 -36 -14 -40 -11 -7 8 32
84 69 133 40 52 109 125 119 125 4 0 8 -12 8 -28z"/>
<path d="M945 1440 c-3 -5 1 -10 9 -10 8 0 18 5 21 10 3 6 -1 10 -9 10 -8 0
-18 -4 -21 -10z"/>
<path d="M257 1433 c-14 -13 -6 -40 19 -74 14 -19 35 -53 45 -76 13 -28 24
-40 34 -37 9 4 22 -11 39 -43 21 -41 25 -44 26 -23 0 15 -4 30 -9 35 -16 17
-91 163 -91 178 0 27 -47 57 -63 40z"/>
<path d="M1166 1418 c-9 -12 -16 -36 -16 -52 0 -30 0 -30 19 -11 22 23 38 85
22 85 -5 0 -17 -10 -25 -22z"/>
<path d="M574 1417 c-3 -10 -4 -37 -2 -61 5 -40 4 -43 -17 -40 -12 1 -32 7
-43 13 -25 13 -62 14 -82 1 -21 -13 55 -44 92 -36 15 3 39 1 53 -4 14 -5 24
-6 23 -2 -1 4 4 20 11 37 13 32 10 60 -13 90 -14 19 -15 19 -22 2z"/>
<path d="M747 1423 c-25 -24 18 -32 49 -8 18 14 17 14 -12 15 -17 0 -34 -3
-37 -7z"/>
<path d="M480 1411 c0 -5 7 -11 15 -15 8 -3 15 -1 15 3 0 5 -7 11 -15 15 -8 3
-15 1 -15 -3z"/>
<path d="M380 1391 c-14 -27 -13 -31 8 -31 21 0 62 27 62 41 0 18 -59 10 -70
-10z"/>
<path d="M1080 1367 c0 -38 42 -88 55 -66 5 7 4 10 -2 6 -7 -4 -16 13 -23 43
-14 57 -30 66 -30 17z"/>
<path d="M660 1292 c0 -79 31 -102 34 -25 0 21 5 41 9 44 4 3 -4 11 -18 17
-25 11 -25 11 -25 -36z"/>
<path d="M833 1316 c7 -14 15 -26 20 -26 13 0 7 17 -13 35 -19 17 -19 17 -7
-9z"/>
<path d="M1040 1288 c-9 -19 -10 -37 -4 -60 9 -31 12 -32 53 -29 54 3 91 17
91 32 0 14 -78 4 -106 -13 -7 -5 -9 3 -7 20 3 15 0 38 -5 52 l-10 25 -12 -27z"/>
<path d="M1166 1301 c-7 -10 8 -22 47 -39 32 -14 36 -1 7 28 -21 21 -45 26
-54 11z"/>
<path d="M528 1239 c-10 -5 -18 -17 -18 -24 0 -19 42 -19 93 -1 l39 13 -29 6
c-15 4 -37 9 -48 12 -11 3 -28 0 -37 -6z"/>
<path d="M785 1240 c-9 -14 43 -43 78 -43 18 0 38 -4 45 -10 9 -7 11 -6 7 5
-8 19 -77 58 -103 58 -12 0 -23 -4 -27 -10z"/>
<path d="M3419 1235 c-34 -18 -83 -109 -75 -140 3 -13 1 -36 -4 -51 -14 -36
-4 -61 30 -79 25 -13 30 -13 52 5 39 30 140 158 136 171 -2 6 -17 -6 -33 -27
-83 -109 -145 -154 -145 -105 0 46 14 83 34 91 27 10 96 85 96 104 0 16 -37
46 -55 46 -5 -1 -21 -7 -36 -15z m27 -83 c-32 -33 -42 -23 -20 20 29 58 39 65
42 33 3 -20 -4 -36 -22 -53z"/>
<path d="M976 1204 c-8 -30 1 -67 15 -59 12 8 12 72 0 79 -5 3 -12 -6 -15 -20z"/>
<path d="M327 1190 c-25 -24 -26 -27 -11 -45 15 -20 15 -20 5 0 -8 16 -5 24
17 42 15 11 25 23 22 25 -3 2 -17 -8 -33 -22z"/>
<path d="M1200 1194 c-46 -20 -46 -21 -25 -45 23 -24 11 -52 -24 -57 -12 -2
-20 -9 -18 -15 10 -28 -13 -47 -56 -47 -24 0 -47 -4 -52 -9 -6 -6 -36 -4 -80
5 -55 12 -83 13 -131 4 -72 -12 -87 -12 -56 0 32 13 27 35 -14 59 -32 19 -42
20 -97 11 -34 -5 -66 -10 -70 -10 -5 0 -7 -9 -5 -21 3 -18 -9 -25 -82 -49
l-85 -29 -23 27 c-13 15 -30 39 -40 55 -21 35 -31 34 -88 -5 l-46 -33 149 -46
c306 -96 360 -110 438 -116 45 -3 103 -1 131 5 58 13 318 130 451 205 l92 51
-112 38 c-62 21 -114 38 -117 37 -3 0 -21 -7 -40 -15z"/>
<path d="M676 1185 c5 -12 -3 -15 -39 -15 -30 0 -53 -7 -68 -20 l-24 -19 51
-1 c28 0 65 5 81 11 28 9 30 12 19 34 -12 27 -29 35 -20 10z"/>
<path d="M760 1181 c0 -20 40 -51 65 -51 31 0 32 15 3 34 -34 21 -68 29 -68
17z"/>
<path d="M342 1171 c-8 -5 -6 -16 8 -39 24 -40 25 -49 3 -31 -9 8 1 -12 22
-44 21 -31 40 -55 43 -53 2 3 -8 21 -23 41 -15 19 -25 38 -23 41 3 3 15 -11
26 -31 13 -22 29 -35 42 -35 11 0 20 2 20 3 0 2 -18 23 -40 46 -23 24 -43 56
-47 72 -6 33 -14 41 -31 30z"/>
<path d="M1045 1151 c-17 -7 -14 -10 20 -20 45 -12 75 -14 75 -5 0 13 -35 33
-55 33 -11 0 -29 -4 -40 -8z"/>
<path d="M985 1090 c-19 -7 -18 -9 8 -19 57 -22 124 -6 78 18 -23 13 -58 13
-86 1z"/>
<path d="M4048 779 c-24 -13 -23 -56 1 -68 15 -8 20 -6 29 13 6 13 6 29 2 36
-5 8 -6 18 -4 22 7 11 -7 10 -28 -3z"/>
<path d="M1577 759 c-8 -29 2 -49 24 -49 15 0 19 7 19 35 0 28 -4 35 -19 35
-11 0 -21 -9 -24 -21z"/>
<path d="M1630 745 c0 -13 139 -15 1195 -15 1056 0 1195 2 1195 15 0 13 -139
15 -1195 15 -1056 0 -1195 -2 -1195 -15z"/>
</g>
</svg>
